PathFileType	4	(X/Y/Z)	C:\Users\GVLAB1\Desktop\Emotion\trc\EMLATRE05.4.trc																																																																																																																									
DataRate	CameraRate	NumFrames	NumMarkers	Units	OrigDataRate	OrigDataStartFrame	OrigNumFrames																																																																																																																					
30	30	6	41	mm	30	38	302																																																																																																																					
Frame#	Time	EMLA_LFHD			EMLA_RFHD			EMLA_LBHD			EMLA_RBHD			EMLA_LFTShould			EMLA_RFTShould			EMLA_LRRShould			EMLA_RRRShould			EMLA_T10			EMLA_STRN			EMLA_TRUN			EMLA_LSHO			EMLA_LUPA			EMLA_LELB			EMLA_LFRM			EMLA_LWRA			EMLA_LWRB			EMLA_LFIN			EMLA_RSHO			EMLA_RUPA			EMLA_RELB			EMLA_RFRM			EMLA_RWRA			EMLA_RWRB			EMLA_RFIN			EMLA_LFWT			EMLA_RFWT			EMLA_LBWT			EMLA_RBWT			EMLA_LHTI			EMLA_LKNE			EMLA_LSHN			EMLA_LANK			EMLA_LHEE			EMLA_LTOE			EMLA_RTHI			EMLA_RKNE			EMLA_RSHN			EMLA_RANK			EMLA_RHEE			EMLA_RTOE		
		X1	Y1	Z1	X2	Y2	Z2	X3	Y3	Z3	X4	Y4	Z4	X5	Y5	Z5	X6	Y6	Z6	X7	Y7	Z7	X8	Y8	Z8	X9	Y9	Z9	X10	Y10	Z10	X11	Y11	Z11	X12	Y12	Z12	X13	Y13	Z13	X14	Y14	Z14	X15	Y15	Z15	X16	Y16	Z16	X17	Y17	Z17	X18	Y18	Z18	X19	Y19	Z19	X20	Y20	Z20	X21	Y21	Z21	X22	Y22	Z22	X23	Y23	Z23	X24	Y24	Z24	X25	Y25	Z25	X26	Y26	Z26	X27	Y27	Z27	X28	Y28	Z28	X29	Y29	Z29	X30	Y30	Z30	X31	Y31	Z31	X32	Y32	Z32	X33	Y33	Z33	X34	Y34	Z34	X35	Y35	Z35	X36	Y36	Z36	X37	Y37	Z37	X38	Y38	Z38	X39	Y39	Z39	X40	Y40	Z40	X41	Y41	Z41
																																																																																																																												
38	0.185	284.52213	1617.48389	-1876.99084	116.27907	1603.67908	-1894.34583	310.90518	1641.59692	-2024.62207	117.39861	1629.73584	-2045.71899	297.71292	1412.01782	-1955.6532	148.04738	1408.05481	-1957.45642	298.41098	1448.04309	-2111.70923	136.27609	1443.72314	-2112.41504	225.24101	1273.74658	-2155.95703	220.14491	1345.69995	-1916.39722	213.28197	1242.58545	-1896.25061	426.46683	1424.46521	-2004.63818	473.81293	1235.84094	-2000.96204	477.24225	1090.58252	-1991.73718	468.44894	956.44531	-1976.87915	371.78729	822.15643	-1898.48413	433.45264	796.46667	-1950.80701	419.58493	767.87274	-1888.31897	24.98373	1434.7887	-2025.27759	-34.81811	1240.08789	-2008.90063	-48.31429	1094.77979	-2017.11621	-49.41602	992.48541	-2013.03125	27.81178	840.16577	-1905.55225	-26.25492	816.70074	-1966.53479	-31.4073	790.22882	-1907.03308	307.9834	988.67651	-1915.04749	73.14931	984.27875	-1940.31177	295.87277	1011.54248	-2116.72925	119.99641	1018.08167	-2119.35327	328.76938	724.65674	-2105.62744	327.65027	518.94879	-2067.56567	295.19418	337.19009	-2060.92261	291.40256	162.46353	-2137.30542	222.01215	85.9943	-2196.94849	260.1344	74.00285	-1999.43103	81.24634	710.78101	-2127.33936	38.26574	512.89203	-2066.12207	75.68084	290.16431	-2057.28613	34.95831	130.12386	-2132.83496	88.51411	78.57661	-2187.8501	58.70737	71.70877	-1986.36426
39	0.19	285.8811	1617.07043	-1875.84741	117.66907	1603.51147	-1893.37476	312.56784	1641.47327	-2023.50549	119.13252	1629.74878	-2044.59216	299.13745	1411.88623	-1954.88159	149.12202	1408.01355	-1956.74976	299.9136	1447.85144	-2110.75659	137.85197	1443.73999	-2111.7373	226.63023	1273.65491	-2155.19385	221.51752	1345.72461	-1915.75977	214.10286	1242.52295	-1895.45117	427.76694	1424.08704	-2003.53333	475.02707	1235.4491	-1999.77612	478.47946	1090.19519	-1990.54932	469.72641	956.07825	-1975.75793	372.89044	821.52893	-1897.5658	434.78531	796.05933	-1949.83716	420.92755	767.46289	-1887.52136	26.37761	1434.96838	-2024.93872	-33.65376	1240.29797	-2008.66235	-47.1594	1094.9801	-2016.9408	-48.44835	992.72333	-2012.90173	28.68774	840.29675	-1905.00098	-25.37971	816.89813	-1966.25293	-30.62917	790.45258	-1906.79749	308.76871	988.4953	-1914.27185	73.71026	984.26849	-1940.08569	297.0433	1011.35327	-2115.93115	121.10693	1018.11145	-2119.03931	329.44543	724.55237	-2105.00098	328.17102	518.85815	-2067.11377	295.47501	337.04712	-2060.57959	291.51764	162.4201	-2137.18726	222.05911	86.08075	-2196.90405	260.13284	74.00428	-1999.40796	82.04776	710.72876	-2126.96973	38.72471	512.86108	-2065.7063	75.82511	290.1615	-2056.97607	35.07193	130.23056	-2132.82861	88.5476	78.71977	-2187.86646	58.70078	71.71374	-1986.3606
40	0.195	287.34384	1616.71094	-1874.74341	119.1635	1603.37793	-1892.34595	314.14328	1641.28516	-2022.31519	120.6431	1629.94873	-2043.61462	300.32227	1411.59802	-1954	150.2747	1407.84351	-1956.12085	301.4888	1447.78918	-2109.85962	139.46585	1443.79602	-2111.08472	228.10239	1273.65222	-2154.44043	222.36749	1345.5022	-1915.15198	214.94717	1242.23975	-1895.0531	429.06894	1423.70642	-2002.37903	476.25232	1235.01501	-1998.67078	479.6131	1089.75732	-1989.34241	471.01303	955.93872	-1974.8241	374.22385	821.20258	-1896.56665	436.07492	795.67615	-1948.85315	422.28375	767.06329	-1886.69702	27.71534	1435.18311	-2024.65271	-32.32505	1240.25012	-2008.25586	-46.16655	1095.23511	-2016.91541	-47.37127	992.96393	-2012.79114	29.4489	840.53223	-1904.51172	-24.53923	817.15649	-1965.94751	-29.85926	790.72638	-1906.55774	309.48682	988.26404	-1913.51855	74.52521	984.44629	-1939.7688	298.20621	1011.24585	-2115.06836	122.21929	1018.12671	-2118.64648	330.1492	724.52216	-2104.41577	328.62329	518.74628	-2066.76367	295.79214	336.97797	-2060.38965	291.59576	162.44371	-2137.12061	222.11166	86.18994	-2196.89014	260.14587	73.99035	-1999.37659	82.98966	710.74329	-2126.54688	39.13232	512.92944	-2065.35449	76.02741	290.16138	-2056.70923	35.22755	130.3298	-2132.72803	88.80153	78.73719	-2187.70142	58.66494	71.73897	-1986.3407
41	0.2	288.72672	1616.32312	-1873.59412	120.43002	1603.27881	-1891.45593	315.64401	1641.07764	-2021.09619	122.2635	1629.99536	-2042.5625	301.44604	1411.33789	-1953.05554	151.38586	1407.60864	-1955.59021	302.96201	1447.48389	-2108.70239	141.07185	1443.85376	-2110.46558	229.56602	1273.61011	-2153.66284	223.2464	1345.33923	-1914.40698	215.78532	1241.95654	-1894.44531	430.36557	1423.38733	-2001.20422	477.39142	1234.66357	-1997.47791	480.81653	1089.43982	-1988.28528	472.15778	955.38501	-1973.61133	375.29663	820.72699	-1895.75012	437.39044	795.30664	-1947.93872	423.51581	766.71014	-1885.81616	29.10231	1435.31006	-2024.36414	-31.23475	1240.74243	-2008.64124	-45.12806	1095.41699	-2016.92029	-46.42657	993.13605	-2012.75293	29.7462	841.22101	-1904.05261	-23.745	817.3681	-1965.7417	-29.29002	791.00378	-1906.30139	310.16299	987.97827	-1912.87341	75.21118	984.5434	-1939.44421	299.25742	1011.11877	-2114.23999	123.28048	1018.16351	-2118.25098	330.9697	724.35938	-2103.79248	329.16	518.63269	-2066.32593	296.05374	336.81766	-2060.12378	291.79501	162.3709	-2136.94043	222.2769	86.18733	-2196.9397	260.10495	73.98112	-1999.38867	83.73901	710.72998	-2126.19189	39.53167	513.04852	-2064.93311	76.19553	290.1153	-2056.36694	35.4022	130.42088	-2132.72852	88.92642	78.8247	-2187.79321	58.66504	71.75217	-1986.29651
42	0.205	290.10376	1615.93335	-1872.38391	121.87291	1603.11975	-1890.40295	317.31448	1640.90161	-2019.93896	123.84047	1629.92786	-2041.50818	302.75848	1411.00586	-1952.04041	152.70149	1407.59387	-1954.91138	304.56235	1447.46289	-2107.79663	142.66612	1443.80957	-2109.71411	231.05141	1273.50439	-2152.81567	224.43489	1344.56921	-1913.46619	216.76407	1241.62988	-1893.90662	431.66266	1423.07507	-1999.90588	478.69308	1234.30823	-1996.32886	482.05115	1089.1637	-1987.18616	473.34937	955.28278	-1972.78125	376.50116	820.45538	-1895.00061	438.54837	794.97253	-1947.13403	424.64313	766.34912	-1885.04944	30.51419	1435.33557	-2023.91833	-30.16438	1240.79236	-2008.60645	-44.09638	1095.50635	-2017.08203	-45.46022	993.198	-2012.8075	30.3871	841.38824	-1903.71582	-22.94265	817.48846	-1965.51514	-28.74558	791.23712	-1906.04712	310.83698	987.76276	-1912.21375	75.78609	984.3595	-1939.30005	300.19461	1010.87866	-2113.64917	124.22656	1018.10187	-2117.88672	331.81805	724.15656	-2103.19751	329.61926	518.41681	-2065.83203	296.26889	336.63647	-2059.83057	291.96347	162.23653	-2136.85767	222.40164	86.16004	-2197.00488	260.1026	73.98394	-1999.43237	84.31965	710.57904	-2125.86426	39.84652	512.94391	-2064.23584	76.40932	289.91946	-2055.97266	35.44603	130.43121	-2132.6123	88.93678	78.84596	-2187.82202	58.66712	71.73867	-1986.32092
43	0.21	291.39218	1615.54431	-1871.05762	123.26164	1602.84326	-1889.47375	318.89929	1640.56079	-2018.43872	125.51393	1629.8761	-2040.51184	303.87399	1410.62134	-1950.95117	153.7399	1407.2948	-1954.21472	306.13327	1447.18225	-2106.65576	144.2155	1443.82385	-2108.90747	232.53278	1273.4137	-2151.97461	225.55492	1344.22546	-1912.57617	217.6967	1241.18726	-1893.26794	432.99939	1422.61414	-1998.61938	480.00012	1233.84192	-1994.98853	483.35349	1088.70288	-1986.06616	474.64484	954.84943	-1971.82715	377.52786	819.98895	-1894.32129	439.58954	794.50275	-1946.32813	425.64658	765.84143	-1884.27771	31.90522	1435.2926	-2023.28345	-29.04585	1240.73218	-2008.28125	-43.27309	1095.61572	-2017.17517	-44.64711	993.24976	-2012.7998	31.07737	841.26495	-1903.59473	-22.31158	817.55756	-1965.41504	-28.23485	791.37256	-1905.89868	311.43961	987.50464	-1911.35986	76.67953	984.43683	-1938.82483	301.18893	1010.70233	-2112.95435	125.19655	1018.03094	-2117.42651	332.48386	724.06378	-2102.69116	329.9841	518.25366	-2065.52002	296.42975	336.5556	-2059.71826	292.04697	162.16756	-2136.80225	222.46104	86.11006	-2197.0127	260.0704	74.00828	-1999.43396	84.75843	710.49402	-2125.59497	40.16946	512.88824	-2063.5564	76.59081	289.74384	-2055.63794	35.44528	130.37949	-2132.4917	88.93307	78.85047	-2187.65454	58.67465	71.75059	-1986.30688
